<svg width="32" height="32" viewBox="0 0 32 32" fill="none" xmlns="http://www.w3.org/2000/svg">
<path fill-rule="evenodd" clip-rule="evenodd" d="M26.7797 22.5765C27.373 16.8742 27.373 11.1258 26.7797 5.42349C26.5682 3.3901 24.2237 2.36008 22.5829 3.5797L17.1114 7.64691C15.4442 8.88627 13.422 9.55553 11.3445 9.55553H6.23893C5.31846 9.55553 4.57227 10.3017 4.57227 11.2222V16.7777C4.57227 17.6982 5.31846 18.4444 6.23893 18.4444H7.0713L5.94416 22.651C5.81856 23.1197 6.04764 23.611 6.48746 23.8161L11.3957 26.1049C11.6636 26.2298 11.973 26.2298 12.2409 26.1049C12.5088 25.98 12.7077 25.7429 12.7842 25.4574L14.4678 19.1742C14.4857 19.1074 14.4964 19.0404 14.5003 18.9741C15.4303 19.2953 16.3117 19.7586 17.1114 20.353L22.5829 24.4202C24.2237 25.6399 26.5682 24.6099 26.7797 22.5765ZM24.7905 5.63047C25.3694 11.1951 25.3694 16.8048 24.7905 22.3695C24.7393 22.861 24.1727 23.1099 23.7761 22.8151L18.3046 18.7479C16.2923 17.2521 13.8518 16.4444 11.3445 16.4444L6.57227 16.4444L6.57227 11.5555H11.3445C13.8518 11.5555 16.2923 10.7478 18.3046 9.25203L23.7761 5.18482C24.1727 4.89003 24.7393 5.13899 24.7905 5.63047ZM12.5815 18.5239C12.173 18.4712 11.7599 18.4444 11.3445 18.4444H9.14186L8.09319 22.3581L11.1608 23.7886L12.5359 18.6565C12.5482 18.6106 12.5635 18.5664 12.5815 18.5239Z" fill="#F9F7EB"/>
</svg>
