<svg width="32" height="32" viewBox="0 0 32 32" fill="none" xmlns="http://www.w3.org/2000/svg">
<path fill-rule="evenodd" clip-rule="evenodd" d="M20.1827 4.62615C19.9952 4.43861 19.7408 4.33325 19.4756 4.33325C19.2104 4.33325 18.9561 4.43861 18.7685 4.62615L6.512 16.8827C6.38637 17.0083 6.29647 17.1651 6.25157 17.337L4.91824 22.4416C4.82852 22.7851 4.92764 23.1504 5.17867 23.4014C5.4297 23.6525 5.79501 23.7516 6.1385 23.6619L11.2431 22.3285C11.415 22.2836 11.5718 22.1937 11.6975 22.0681L23.954 9.81159C24.3445 9.42107 24.3445 8.78791 23.954 8.39738L20.1827 4.62615ZM8.11808 18.105L19.4756 6.74747L21.8326 9.10449L10.4751 20.462L7.28474 21.2954L8.11808 18.105Z" fill="#F9F7EB"/>
<path d="M5.3335 25.6666C4.78121 25.6666 4.3335 26.1143 4.3335 26.6666C4.3335 27.2189 4.78121 27.6666 5.3335 27.6666H25.3335C25.8858 27.6666 26.3335 27.2189 26.3335 26.6666C26.3335 26.1143 25.8858 25.6666 25.3335 25.6666H5.3335Z" fill="#F9F7EB"/>
</svg>
