<svg width="32" height="32" viewBox="0 0 32 32" fill="none" xmlns="http://www.w3.org/2000/svg">
<path fill-rule="evenodd" clip-rule="evenodd" d="M15.9998 5C11.3651 5 7.6665 8.62302 7.6665 13.0213C7.6665 15.694 8.76107 17.9991 10.7136 19.4347C11.144 19.7511 11.5121 20.223 11.6531 20.8216C11.7688 21.3129 11.9013 21.9116 12.0325 22.546H19.9672C20.0984 21.9116 20.2308 21.3129 20.3466 20.8216C20.4876 20.223 20.8557 19.7511 21.286 19.4347C23.2386 17.9991 24.3332 15.694 24.3332 13.0213C24.3332 8.62302 20.6345 5 15.9998 5ZM19.5848 24.546H12.4149C12.5621 25.3962 12.6776 26.2013 12.7126 26.7792C12.7494 27.3878 13.2042 27.9331 13.8748 28.078L14.1361 28.1345C15.3633 28.3996 16.6363 28.3996 17.8636 28.1345L18.1249 28.078C18.7955 27.9331 19.2503 27.3878 19.2871 26.7792C19.3221 26.2013 19.4376 25.3962 19.5848 24.546ZM5.6665 13.0213C5.6665 7.45488 10.3252 3 15.9998 3C21.6745 3 26.3332 7.45488 26.3332 13.0213C26.3332 16.2531 24.9951 19.1901 22.4708 21.046C22.3556 21.1307 22.3075 21.2198 22.2933 21.2801C22.1354 21.9503 21.9432 22.8373 21.7678 23.7373C21.5241 24.9882 21.3257 26.2017 21.2835 26.9C21.19 28.4442 20.054 29.7074 18.5473 30.0329L18.286 30.0894C16.7803 30.4147 15.2193 30.4147 13.7137 30.0894L13.4524 30.0329C11.9457 29.7074 10.8096 28.4442 10.7162 26.9C10.6739 26.2017 10.4755 24.9882 10.2318 23.7373C10.0565 22.8373 9.86424 21.9503 9.70639 21.2801C9.69218 21.2198 9.64404 21.1307 9.52891 21.046C7.0046 19.1901 5.6665 16.2531 5.6665 13.0213Z" fill="#F9F7EB"/>
</svg>
