<svg width="32" height="32" viewBox="0 0 32 32" fill="none" xmlns="http://www.w3.org/2000/svg">
<path fill-rule="evenodd" clip-rule="evenodd" d="M25.0002 14L24.9915 14.3239L25.0002 14.6667L24.992 14.991L25.0002 15.3334L24.9924 15.6599L25.0002 16L24.7836 25.4707C24.7323 27.7178 23.0233 29.5786 20.7887 29.8206C17.6055 30.1653 14.3943 30.1653 11.2111 29.8206C8.97653 29.5786 7.26751 27.7178 7.21614 25.4707L6.99963 16L7.00746 15.6576L6.99965 15.3334L7.00786 14.9924L6.99959 14.6667L7.00826 14.3253L6.99951 14L7.21819 5.86948C7.22124 5.75604 7.22921 5.64378 7.2419 5.53291L7.24688 5.48603L7.25082 5.44824C7.3583 4.34944 7.96721 3.3911 8.85458 2.81599C8.92078 2.77196 8.98854 2.73003 9.05775 2.6903C9.12546 2.65023 9.19457 2.61222 9.265 2.57638C9.70046 2.34656 10.1865 2.1976 10.7038 2.14998C14.2271 1.82566 17.7727 1.82566 21.296 2.14998C21.8125 2.19752 22.2977 2.34608 22.7327 2.57528C22.8031 2.61107 22.8722 2.64902 22.9399 2.68904C23.0113 2.72996 23.0812 2.77322 23.1494 2.81871C24.032 3.39253 24.6383 4.3459 24.7481 5.43917L24.7584 5.53824C24.7708 5.64738 24.7786 5.75786 24.7816 5.86948L25.0002 14ZM22.7656 5.76097L22.9749 14.9165L22.8052 21.2235C22.7671 22.6413 21.675 23.8067 20.2626 23.9367C17.4268 24.1978 14.573 24.1978 11.7371 23.9367C10.3248 23.8067 9.23264 22.6413 9.19451 21.2235L9.02491 14.9173L9.23423 5.76097C9.23468 5.74127 9.2355 5.72166 9.23668 5.70214C9.31599 5.16576 9.62683 4.70277 10.0676 4.42162C10.2345 4.33458 10.4198 4.27686 10.6168 4.25551C14.1951 3.86801 17.8047 3.86801 21.3829 4.25551C21.5799 4.27685 21.7651 4.33453 21.932 4.42151C22.373 4.70273 22.6839 5.16595 22.7631 5.70258C22.7643 5.72195 22.7651 5.74142 22.7656 5.76097ZM15.9999 28.9334C17.1045 28.9334 17.9999 28.038 17.9999 26.9334C17.9999 25.8288 17.1045 24.9334 15.9999 24.9334C14.8953 24.9334 13.9999 25.8288 13.9999 26.9334C13.9999 28.038 14.8953 28.9334 15.9999 28.9334Z" fill="#232327"/>
</svg>
