<svg width="32" height="32" viewBox="0 0 32 32" fill="none" xmlns="http://www.w3.org/2000/svg">
<path fill-rule="evenodd" clip-rule="evenodd" d="M19.18 20.5944C15.6463 23.4246 10.4738 23.2018 7.19805 19.9261C3.68333 16.4114 3.68333 10.7129 7.19805 7.19817C10.7128 3.68345 16.4113 3.68345 19.926 7.19817C23.2017 10.4739 23.4244 15.6464 20.5942 19.1801L27.4684 26.0543C27.8589 26.4448 27.8589 27.078 27.4684 27.4685C27.0779 27.8591 26.4447 27.8591 26.0542 27.4685L19.18 20.5944ZM8.61226 18.5119C5.87859 15.7782 5.87859 11.3461 8.61226 8.61239C11.3459 5.87872 15.7781 5.87872 18.5118 8.61239C21.2434 11.344 21.2454 15.7717 18.5178 18.5059C18.5158 18.5078 18.5137 18.5098 18.5117 18.5118C18.5097 18.5139 18.5077 18.5159 18.5057 18.5179C15.7716 21.2455 11.3439 21.2435 8.61226 18.5119Z" fill="#F9F7EB"/>
</svg>
