<svg width="32" height="32" viewBox="0 0 32 32" fill="none" xmlns="http://www.w3.org/2000/svg">
<path fill-rule="evenodd" clip-rule="evenodd" d="M18.7497 7.49354C15.596 7.16218 12.4175 7.13753 9.25899 7.41993L7.14994 7.60851C5.40708 7.76434 3.99889 9.09581 3.74576 10.8272C3.24425 14.2575 3.24425 17.7425 3.74576 21.1728C3.99889 22.9042 5.40708 24.2357 7.14994 24.3915L9.25899 24.5801C12.4175 24.8625 15.596 24.8378 18.7497 24.5065L19.56 24.4213C21.2188 24.247 22.5609 23.0123 22.8841 21.3914L26.9465 23.5498C27.2428 23.7072 27.5982 23.7055 27.8929 23.5455C28.1877 23.3854 28.3826 23.0882 28.4119 22.754L28.4451 22.3756C28.817 18.1333 28.817 13.8667 28.4451 9.62447L28.4119 9.24601C28.3826 8.91185 28.1877 8.61464 27.8929 8.45456C27.5982 8.29448 27.2428 8.29286 26.9465 8.45024L22.8841 10.6086C22.5609 8.98772 21.2188 7.75297 19.56 7.57867L18.7497 7.49354ZM9.4371 9.41199C12.4668 9.1411 15.5156 9.16474 18.5407 9.48259L19.351 9.56773C20.1665 9.65341 20.8201 10.2811 20.9387 11.0924C21.4145 14.3468 21.4145 17.6532 20.9387 20.9076C20.8201 21.719 20.1665 22.3466 19.351 22.4323L18.5407 22.5174C15.5156 22.8353 12.4668 22.8589 9.4371 22.588L7.32806 22.3995C6.50719 22.3261 5.84394 21.699 5.72472 20.8835C5.25127 17.645 5.25127 14.355 5.72472 11.1165C5.84394 10.3011 6.50718 9.67396 7.32805 9.60056L9.4371 9.41199ZM23.1467 12.7338C23.3451 14.9067 23.3451 17.0933 23.1467 19.2662L26.5427 21.0705C26.7845 17.6945 26.7845 14.3055 26.5427 10.9295L23.1467 12.7338Z" fill="#F9F7EB"/>
</svg>
