<svg width="146" height="105" viewBox="0 0 146 105" fill="none" xmlns="http://www.w3.org/2000/svg">
<path d="M1.27929 0.199776C0.815498 0.0455277 0.314474 0.296464 0.160226 0.760259C0.00597692 1.22405 0.256913 1.72508 0.720708 1.87933L1.27929 0.199776ZM48.5 101.04L47.7977 100.501L47.7799 100.524L47.7636 100.549L48.5 101.04ZM43 102.54L43.6911 101.987L43 102.54ZM43 90.0396L43.8433 90.308L43 90.0396ZM118.5 102.04L118.994 102.774L118.5 102.04ZM133.5 82.5396L133.297 83.4011L133.5 82.5396ZM144.61 89.4178C145.095 89.3572 145.439 88.9148 145.378 88.4298L144.39 80.5264C144.33 80.0414 143.887 79.6973 143.402 79.758C142.917 79.8186 142.573 80.2609 142.634 80.7459L143.512 87.7712L136.487 88.6494C136.002 88.71 135.658 89.1523 135.718 89.6373C135.779 90.1223 136.221 90.4663 136.706 90.4057L144.61 89.4178ZM0.720708 1.87933C26.6101 10.4896 40.8316 31.9394 47.3421 52.9592C50.5961 63.4651 51.9107 73.8283 51.7948 82.3568C51.7368 86.6212 51.3214 90.4108 50.6201 93.5203C49.9151 96.6462 48.9362 99.0165 47.7977 100.501L49.2023 101.578C50.5638 99.8027 51.6162 97.1487 52.3467 93.9098C53.0809 90.6545 53.5054 86.7387 53.5646 82.3809C53.6831 73.6652 52.3414 63.1172 49.0329 52.4355C42.4184 31.0803 27.8899 9.04992 1.27929 0.199776L0.720708 1.87933ZM47.7636 100.549C47.4842 100.968 46.7079 101.849 45.8295 102.323C45.3991 102.556 45.0167 102.651 44.6958 102.62C44.4065 102.591 44.0623 102.451 43.6911 101.987L42.3089 103.092C42.9377 103.878 43.6976 104.3 44.5229 104.381C45.3167 104.459 46.0592 104.211 46.6705 103.881C47.8754 103.23 48.8491 102.111 49.2364 101.53L47.7636 100.549ZM43.6911 101.987C43.3453 101.555 43.0717 100.868 42.904 99.941C42.7385 99.0264 42.6888 97.9501 42.7332 96.8069C42.8221 94.5176 43.284 92.0659 43.8433 90.308L42.1567 89.7713C41.5494 91.6799 41.0597 94.2889 40.9645 96.7382C40.9169 97.9644 40.967 99.1769 41.1622 100.256C41.3552 101.323 41.7032 102.335 42.3089 103.092L43.6911 101.987ZM43.8433 90.308C45.8269 84.0741 51.6193 77.3033 59.8967 72.4793C68.1523 67.6681 78.7962 64.8458 90.3811 66.4166L90.6189 64.6626C78.6038 63.0335 67.5658 65.9613 59.0055 70.9501C50.467 75.9262 44.3094 83.0054 42.1567 89.7713L43.8433 90.308ZM90.3811 66.4166C101.848 67.9715 110.519 75.6264 115.409 83.564C117.853 87.5313 119.319 91.5167 119.73 94.7711C120.149 98.0932 119.445 100.338 118.006 101.305L118.994 102.774C121.305 101.221 121.926 98.0438 121.486 94.5497C121.037 90.9878 119.459 86.7633 116.916 82.6355C111.831 74.3831 102.752 66.3078 90.6189 64.6626L90.3811 66.4166ZM118.006 101.305C117.76 101.471 117.198 101.714 116.47 101.837C115.754 101.957 114.959 101.946 114.228 101.692C113.518 101.444 112.831 100.955 112.308 100.038C111.774 99.1044 111.385 97.6804 111.385 95.5396H109.615C109.615 97.879 110.038 99.6337 110.771 100.916C111.513 102.216 112.545 102.98 113.647 103.364C114.729 103.74 115.839 103.737 116.764 103.582C117.677 103.429 118.49 103.112 118.994 102.774L118.006 101.305ZM111.385 95.5396C111.385 89.9424 114.701 86.4599 119.158 84.5693C123.656 82.6614 129.212 82.4399 133.297 83.4011L133.703 81.6781C129.288 80.6393 123.344 80.8712 118.467 82.9399C113.549 85.026 109.615 89.0435 109.615 95.5396H111.385ZM133.297 83.4011C136.669 84.1945 138.175 84.7919 139.383 85.5709C139.999 85.9679 140.557 86.4248 141.267 87.0262C141.973 87.6231 142.814 88.3494 143.957 89.2382L145.043 87.841C143.936 86.9798 143.127 86.2811 142.411 85.675C141.699 85.0732 141.064 84.5489 140.342 84.0834C138.875 83.1373 137.131 82.4848 133.703 81.6781L133.297 83.4011Z" fill="#232327"/>
</svg>
