<svg width="127" height="26" viewBox="0 0 127 26" fill="none" xmlns="http://www.w3.org/2000/svg">
<g id="Vector">
<path d="M19.4138 5.16451C21.3326 5.16451 22.8752 5.75708 24.0415 6.94223C25.2267 8.10856 25.8193 9.74519 25.8193 11.8521V21.0229H21.8688V12.3883C21.8688 11.1655 21.5584 10.2343 20.9376 9.5947C20.3168 8.93628 19.4703 8.60708 18.398 8.60708C17.3257 8.60708 16.4698 8.93628 15.8302 9.5947C15.2094 10.2343 14.899 11.1655 14.899 12.3883V21.0229H10.9485V12.3883C10.9485 11.1655 10.6381 10.2343 10.0173 9.5947C9.39652 8.93628 8.54998 8.60708 7.47771 8.60708C6.38662 8.60708 5.52128 8.93628 4.88167 9.5947C4.26088 10.2343 3.95049 11.1655 3.95049 12.3883V21.0229H0V5.39025H3.95049V7.28084C4.45841 6.62243 5.10742 6.1051 5.89751 5.72886C6.70642 5.35263 7.59058 5.16451 8.54998 5.16451C9.77275 5.16451 10.8638 5.42787 11.8232 5.95461C12.7826 6.46253 13.5257 7.19619 14.0524 8.15559C14.5604 7.25262 15.294 6.52837 16.2534 5.98282C17.2317 5.43728 18.2851 5.16451 19.4138 5.16451Z" fill="#F9F7EB"/>
<path d="M31.2611 0.141747V21.0229H27.3106V0.141747H31.2611Z" fill="#F9F7EB"/>
<path d="M41.4285 5.16451C43.2909 5.16451 44.7959 5.75708 45.9434 6.94223C47.0909 8.10856 47.6647 9.74519 47.6647 11.8521V21.0229H43.7142V12.3883C43.7142 11.1467 43.4038 10.1967 42.783 9.53826C42.1622 8.86104 41.3157 8.52242 40.2434 8.52242C39.1523 8.52242 38.287 8.86104 37.6473 9.53826C37.0266 10.1967 36.7162 11.1467 36.7162 12.3883V21.0229H32.7657V5.39025H36.7162V7.33728C37.2429 6.66005 37.9107 6.13332 38.7196 5.75708C39.5473 5.36203 40.4503 5.16451 41.4285 5.16451Z" fill="#F9F7EB"/>
<path d="M92.1211 13.0549C92.1211 17.4555 88.5537 21.0229 84.1531 21.0229C79.7525 21.0229 76.1385 17.4557 76.1385 13.0551C76.1385 8.65449 79.7525 5.08691 84.1531 5.08691C88.5537 5.08691 92.1211 8.65431 92.1211 13.0549ZM79.3745 13.0549C79.3745 15.694 81.514 17.8335 84.1531 17.8335C86.7922 17.8335 88.9317 15.694 88.9317 13.0549C88.9317 10.4158 86.7922 8.27634 84.1531 8.27634C81.514 8.27634 79.3745 10.4158 79.3745 13.0549Z" fill="#F9F7EB"/>
<path d="M68.8765 13.0549C68.8765 17.4555 65.3091 21.0229 60.9085 21.0229C56.5079 21.0229 52.9405 17.4555 52.9405 13.0549C52.9405 8.65428 56.5079 5.08688 60.9085 5.08688C65.3091 5.08688 68.8765 8.65428 68.8765 13.0549ZM56.1299 13.0549C56.1299 15.694 58.2694 17.8335 60.9085 17.8335C63.5476 17.8335 65.687 15.694 65.687 13.0549C65.687 10.4158 63.5476 8.27632 60.9085 8.27632C58.2694 8.27632 56.1299 10.4158 56.1299 13.0549Z" fill="#F9F7EB"/>
<path d="M89.0203 19.3581H92.0083V22.3461H89.0203V19.3581Z" fill="#F9F7EB"/>
<path d="M67.1826 17.9672H70.1553V21.0229H67.1826V17.9672Z" fill="#F9F7EB"/>
<path d="M89.0203 3.7942H92.0083V6.78221H89.0203V3.7942Z" fill="#F9F7EB"/>
<path d="M67.1826 0H70.1553V8.14279H67.1826V0Z" fill="#F9F7EB"/>
<path d="M79.585 22.3521L89.0203 22.3461V25.3249H79.585V22.3521Z" fill="#F9F7EB"/>
<path d="M74.642 5.51741V21.0229H71.654V5.51741H74.642Z" fill="#F9F7EB"/>
<path d="M101.339 8.0064V16.5893C101.339 17.1709 101.47 17.593 101.733 17.8556C102.014 18.0995 102.483 18.2215 103.14 18.2215H105.11V20.8948H102.577C101.133 20.8948 100.026 20.5571 99.2566 19.8818C98.4874 19.2064 98.1029 18.1089 98.1029 16.5893V1.53406H101.339V5.38932H105.11V8.0064H101.339Z" fill="#F9F7EB"/>
<path d="M106.595 13.0717C106.595 11.5146 106.914 10.1357 107.552 8.93504C108.208 7.73437 109.09 6.80573 110.197 6.14912C111.323 5.47374 112.561 5.13606 113.911 5.13606C115.131 5.13606 116.191 5.37994 117.091 5.86771C118.011 6.33672 118.742 6.92768 119.286 7.64057V5.38932H122.523V20.8948H119.286V18.5873C118.742 19.3189 118.001 19.9286 117.063 20.4164C116.125 20.9042 115.056 21.1481 113.855 21.1481C112.523 21.1481 111.304 20.8104 110.197 20.135C109.09 19.4409 108.208 18.4841 107.552 17.2647C106.914 16.0265 106.595 14.6288 106.595 13.0717ZM119.286 13.128C119.286 12.0587 119.061 11.13 118.611 10.3421C118.179 9.55413 117.607 8.9538 116.894 8.54107C116.181 8.12834 115.412 7.92198 114.587 7.92198C113.761 7.92198 112.992 8.12834 112.279 8.54107C111.566 8.93504 110.985 9.52599 110.535 10.3139C110.103 11.0831 109.887 12.0024 109.887 13.0717C109.887 14.1411 110.103 15.0791 110.535 15.8858C110.985 16.6925 111.566 17.3116 112.279 17.7431C113.011 18.1558 113.78 18.3622 114.587 18.3622C115.412 18.3622 116.181 18.1558 116.894 17.7431C117.607 17.3303 118.179 16.73 118.611 15.9421C119.061 15.1354 119.286 14.1973 119.286 13.128Z" fill="#F9F7EB"/>
<path d="M127 0.0707455V20.8948H124.019V0.0707455H127Z" fill="#F9F7EB"/>
<path d="M71.654 1.03227H74.642V4.02028H71.654V1.03227Z" fill="#F9F7EB"/>
<path d="M96.6055 5.51744V21.0229H93.6175V5.51744H96.6055Z" fill="#F9F7EB"/>
<path d="M93.6175 1.03227H96.6055V4.02028H93.6175V1.03227Z" fill="#F9F7EB"/>
</g>
</svg>
