<svg width="633" height="633" viewBox="0 0 633 633" fill="none" xmlns="http://www.w3.org/2000/svg">
<path d="M223.988 475.066C229.263 473.199 234.669 471.717 240.161 470.635L240.825 473.072C240.9 473.36 241.075 473.61 241.319 473.779C241.563 473.948 241.86 474.022 242.155 473.99L263.898 471.458C269.88 457.817 280.862 437.15 281.02 436.833C280.862 431.674 281.02 427.338 281.02 422.401C268.582 427.022 245.573 435.789 233.546 441.391C233.274 441.565 233.064 441.823 232.945 442.124C232.825 442.425 232.803 442.754 232.881 443.068C232.881 443.068 233.103 443.859 233.388 444.999C227.501 444.999 209.872 444.144 205.631 448.164C204.971 449.082 204.647 450.2 204.713 451.329C204.46 455.696 206.643 489.625 210.125 499.595C211.929 504.817 215.727 504.248 218.322 499.247C221.326 491.717 223.254 483.799 224.051 475.731C224.051 475.319 223.956 475.351 223.988 475.066ZM220.348 446.739C224.209 446.423 225.412 446.486 233.704 446.233C235.192 451.867 238.262 463.451 239.844 469.369C234.26 470.234 228.748 471.513 223.355 473.199C221.674 464.469 220.668 455.623 220.348 446.739Z" fill="#232327"/>
<path d="M515.294 169.739C516.085 168.631 515.072 167.207 514.218 166.099C516.639 163.61 519.324 161.391 522.225 159.484C527.123 157.044 531.599 153.839 535.486 149.989C537.101 148.312 540.139 144.862 539 142.836C537.86 140.811 535.835 140.684 533.081 141.855C534.273 140.603 535.249 139.158 535.961 137.582C536.847 135.114 534.759 133.12 530.233 134.955C531.878 132.328 532.258 129.575 529.473 128.246C527.226 127.169 523.934 129.733 522.035 131.411C518.306 134.669 514.806 138.18 511.559 141.918C509.565 137.741 506.4 132.93 502.444 134.449C498.488 135.968 501.558 142.773 503.583 146.476L496.399 151.445C495.312 150.859 494.086 150.585 492.854 150.654C484.688 152.046 447.183 180.595 443.385 180.595C440.473 180.595 398.885 160.655 362.931 154.895C362.862 154.679 362.733 154.488 362.559 154.342C362.385 154.197 362.174 154.103 361.95 154.072C355.678 153.002 349.321 152.525 342.96 152.648C342.767 152.661 342.58 152.716 342.411 152.808C342.24 152.901 342.095 153.03 341.978 153.186H339.32C338.687 150.622 336.345 144.704 335.522 142.425C337.674 140.557 340.649 139.608 342.2 136.601C345.048 131.031 344.922 121.346 344.131 115.142C347.707 112.421 347.802 108.053 346.979 103.59C346.663 101.786 345.681 97.7033 344.162 96.6905C343.308 96.1208 341.504 96.6905 339.953 97.2602C338.402 93.6521 338.402 95.2979 339.035 93.842C339.331 93.171 339.502 92.4528 339.541 91.7214C341.219 92.2278 344.7 88.8729 343.498 84.4419C342.867 82.856 342.095 81.3305 341.187 79.8843C341.63 78.8082 342.58 77.5106 339.605 73.5543C338.323 72.1721 336.659 71.2025 334.825 70.7691H333.37C332.32 69.2448 330.777 68.1272 329.002 67.6041C326.323 66.9205 323.479 67.3187 321.089 68.7119C320.456 69.1866 319.95 69.8196 319.317 70.2627C317.885 69.3938 316.245 68.9346 314.569 68.9346C312.895 68.9346 311.254 69.3938 309.822 70.2627C308.984 70.5913 308.221 71.0862 307.58 71.7169C306.94 72.3482 306.43 73.102 306.087 73.9341C304.536 73.399 302.891 73.193 301.256 73.3293C299.623 73.4657 298.033 73.941 296.592 74.7254C291.125 77.6901 287.034 82.6776 285.198 88.6197C285.148 89.5157 285.148 90.414 285.198 91.31H284.85C280.103 90.6137 274.057 101.881 278.9 110.648C279.47 111.693 280.198 112.674 280.894 113.813C282.919 116.978 282.128 117.928 286.654 121.789C287.983 122.928 288.205 122.833 289.028 123.53C289.851 124.226 289.534 123.878 290.009 125.65C290.267 126.694 290.732 127.677 291.373 128.541C292.014 129.404 292.821 130.132 293.744 130.683C294.082 133.779 295.401 136.685 297.51 138.975C298.178 139.723 298.958 140.363 299.821 140.874C300.053 141.005 300.314 141.081 300.58 141.095C301.53 146.982 302.701 154.642 303.207 157.902L300.39 159.421C296.706 160.904 293.122 162.627 289.661 164.58C289.389 164.768 289.197 165.049 289.123 165.371C285.768 167.143 282.603 168.821 280.799 169.897C255.669 184.804 184.298 283.077 183.57 287.572C183.49 287.83 183.49 288.104 183.57 288.363C184.593 289.995 185.84 291.476 187.273 292.762C186.832 293.57 186.301 294.321 185.691 295.009C179.361 299.156 169.866 305.327 164.771 310.834C164.413 311.154 164.145 311.56 163.993 312.013C163.84 312.467 163.808 312.953 163.901 313.422C163.994 313.891 164.207 314.329 164.521 314.693C164.834 315.055 165.237 315.329 165.688 315.487C166.637 315.803 166.796 315.708 172.968 312.322C171.272 313.809 169.884 315.616 168.885 317.639C168.474 319.38 170.056 320.393 172.05 320.076C173.172 319.781 174.24 319.311 175.215 318.684C174.644 319.565 174.34 320.594 174.34 321.643C174.34 322.693 174.644 323.721 175.215 324.602C178.38 328.59 186.672 316.025 191.04 312.923C192.813 315.17 195.217 320.424 199.047 319.032C202.37 317.797 198.73 310.486 199.047 308.366C200.335 307.129 201.71 305.987 203.162 304.947C205.603 306.757 208.395 308.041 211.359 308.714C216.581 308.714 271.082 253.706 275.229 249.307C273.741 263.296 266.24 323.336 267.822 335.015C268.55 340.301 281.242 341.06 286.591 341.345C284.977 379.325 283.901 436.865 283.616 437.466C275.229 455.538 272.95 460.476 270.133 465.951C265.006 475.763 243.42 511.97 240.983 520.199C240.635 521.497 240.603 522.003 241.964 524.409C237.886 528.697 234.101 533.255 230.634 538.05C228.894 541.215 236.362 570.713 241.648 581.157C242.851 583.499 244.813 587.107 247.44 587.015C255.352 586.727 255.321 558.306 255.099 550.362C255.098 550.116 255.008 549.882 254.846 549.697C256.281 547.556 257.845 545.506 259.53 543.557C260.537 544.251 261.595 544.863 262.695 545.393C263.771 545.867 264.974 545.044 265.86 544.316C276.4 536.024 333.243 465.191 345.428 431.769C350.967 416.514 358.341 395.435 360.43 380.496C361.707 371.051 361.826 361.485 360.778 352.011C360.778 351.876 360.831 351.747 360.926 351.653C361.021 351.558 361.15 351.505 361.285 351.505C361.42 351.505 361.549 351.558 361.644 351.653C361.739 351.747 361.791 351.876 361.791 352.011C363.377 361.538 363.685 371.236 362.709 380.844C360.367 401.575 344.004 444.777 335.269 460.665C342.801 459.273 358.12 456.234 365.526 454.019C390.213 446.518 413.001 424.141 414.995 399.011C415.641 387.172 415.641 375.308 414.995 363.468C414.781 347.124 412.658 330.861 408.665 315.012C415.375 311.372 421.515 307.1 423.509 303.175C427.782 294.788 416.483 246.522 414.014 232.975C427.528 234.463 450.538 237.153 461.267 228.766C473.547 218.891 500.07 191.102 515.294 169.739ZM253.39 548.621C247.693 545.171 239.717 536.974 238.515 530.549C239.812 528.903 241.173 527.384 242.439 525.675C246.729 532.221 252.077 538.008 258.264 542.797C256.526 544.641 254.898 546.585 253.39 548.621ZM505.008 147.362C505.171 147.258 505.29 147.095 505.335 146.906C505.382 146.718 505.356 146.519 505.261 146.349C504.153 144.292 500.83 137.044 503.14 136.221C504.47 135.715 505.641 136.538 506.622 137.646C508.12 139.546 509.285 141.686 510.072 143.976C510.13 144.161 510.238 144.328 510.386 144.458C510.531 144.587 510.71 144.674 510.9 144.71C511.092 144.746 511.29 144.729 511.475 144.661C511.657 144.593 511.817 144.476 511.939 144.324C515.104 140.811 522.51 132.803 526.688 130.651C529.853 129.005 530.612 132.044 522.858 139.133C521.078 140.491 519.366 141.938 517.731 143.469C517.641 143.593 517.591 143.743 517.591 143.897C517.591 144.05 517.641 144.199 517.731 144.324C517.731 145.147 518.395 146.064 519.535 145.21C522.286 142.795 525.195 140.564 528.239 138.532C529.792 137.428 531.599 136.731 533.493 136.506C532.543 139.418 523.713 147.33 522.953 148.217C522.713 148.433 522.565 148.735 522.544 149.057C522.526 149.38 522.631 149.698 522.843 149.943C523.056 150.188 523.354 150.34 523.676 150.366C524 150.392 524.319 150.291 524.567 150.084C528.08 147.805 534.221 142.488 536.341 143.279C538.462 144.071 532.163 149.957 530.581 151.35C521.497 159.231 523.839 154.167 513.331 164.865C508.758 159.854 503.507 155.508 497.728 151.951L505.008 147.362ZM367.488 298.744C366.95 294.376 366.286 289.661 365.463 284.755L366.824 282.951C373.154 274.817 375.053 261.872 374.451 251.712C377.838 266.556 380.528 281.147 382.585 295.642L367.488 298.744ZM320.425 190.374C312.101 184.044 298.713 173.125 290.927 165.656L303.587 159.326C315.213 170.185 325.164 182.707 333.116 196.483C345.278 218.823 354.298 242.733 359.924 267.537L314.791 203.699L320.678 191.482C320.757 191.294 320.773 191.086 320.728 190.888C320.683 190.689 320.578 190.51 320.425 190.374ZM341.82 154.483C342.01 154.832 344.194 159.484 347.517 167.618C347.517 167.966 346.916 175.879 346.631 178.664C342.591 177.063 338.782 174.934 335.3 172.334C335.997 169.58 339.13 157.079 339.351 154.262L341.82 154.483ZM330.584 188.475C330.806 187.906 331.027 187.146 331.281 186.26L333.401 187.368C334.604 188.159 334.129 185.754 335.205 192.717C335.205 193.888 335.522 195.185 335.585 196.61C334.129 193.983 332.325 191.166 330.616 188.475H330.584ZM328.812 185.817C322.833 177.336 316.025 169.469 308.493 162.333L332.325 172.682C331.407 174.866 330.078 181.544 328.844 185.817H328.812ZM353.151 204.364C349.986 195.723 347.549 186.07 346.346 183.538C346.417 182.749 346.417 181.954 346.346 181.164C346.805 181.335 347.282 181.441 347.77 181.481C348.076 181.484 348.372 181.377 348.604 181.179C348.838 180.982 348.991 180.707 349.036 180.405C349.29 179.36 349.701 174.075 349.764 172.904C358.972 196.149 366.657 219.969 372.774 244.211C354.892 206.168 357.645 217.182 353.182 204.364H353.151ZM379.325 264.784C372.109 230.19 359.418 187.051 344.985 155.085C350.287 155.088 355.578 155.511 360.81 156.351C363.5 180.405 361.253 179.582 363.057 180.531C364.861 181.481 375.717 185.849 377.331 186.513C377.173 188.95 379.452 258.644 379.357 264.784H379.325ZM342.896 98.7161C344.547 102.317 345.128 106.315 344.574 110.237C344.315 111.235 343.788 112.142 343.044 112.857C342.3 113.572 341.375 114.067 340.367 114.287C339.362 114.507 338.312 114.443 337.339 114.102C336.366 113.761 335.509 113.157 334.857 112.357C333.346 109.176 332.212 105.83 331.471 102.387C332.325 101.28 341.44 99.0642 342.896 98.7161ZM299.346 130.366C298.191 129.84 297.007 129.375 295.801 128.973C294.991 128.641 294.271 128.128 293.691 127.473C293.111 126.818 292.689 126.039 292.457 125.196C292.225 124.353 292.188 123.468 292.351 122.608C292.515 121.749 292.871 120.938 293.396 120.238C295.39 118.561 297.194 118.656 298.839 121.156C299.884 123.087 299.852 123.245 300.327 123.435C300.465 123.495 300.612 123.525 300.76 123.523C300.908 123.522 301.055 123.488 301.19 123.426C301.324 123.363 301.446 123.271 301.541 123.159C301.638 123.046 301.709 122.913 301.751 122.77C302.221 120.789 302.294 118.735 301.973 116.725C301.593 114.541 301.53 104.856 301.593 104.54C302.519 105.027 303.555 105.257 304.6 105.204C310.328 104.983 311.468 102.039 313.747 99.6339C316.374 99.8871 316.912 101.153 319.887 99.6339C321.279 98.8415 322.559 97.8621 323.685 96.7221C324.594 97.0945 325.473 97.5393 326.312 98.0514C328.208 98.9635 330.347 99.2438 332.415 98.8507C334.483 98.4577 336.371 97.4121 337.801 95.8676C338.149 96.5322 338.465 97.1969 338.75 97.8932C335.841 98.7961 333.103 100.175 330.648 101.976C330.11 102.641 330.901 106.249 331.091 107.103C328.44 107.437 325.874 108.263 323.526 109.54C323.052 107.895 322.007 104.825 320.361 103.97C319.866 103.819 319.338 103.819 318.842 103.97C315.994 104.413 305.771 107.483 304.536 109.161C303.46 110.332 306.53 119.384 307.48 120.871C311.12 126.505 321.786 124.859 323.78 118.276C324.273 116.067 324.273 113.775 323.78 111.566C324.697 111.566 327.451 110.585 327.768 110.49C329.951 115.396 330.584 115.68 333.116 120.966C332.768 121.251 332.199 121.726 331.724 122.042C329.477 123.53 329.002 123.276 329.128 123.909C329.165 124.035 329.247 124.143 329.358 124.213C329.469 124.283 329.601 124.31 329.73 124.289C331.059 124.099 332.357 123.738 333.591 123.213C334.33 122.938 334.939 122.395 335.3 121.694C336.186 119.7 331.281 112.199 329.35 109.952C329.73 109.952 330.616 109.319 331.281 108.971C332.167 112.515 332.768 115.301 336.186 116.693C337.176 117.066 338.228 117.236 339.283 117.193C340.338 117.149 341.372 116.893 342.327 116.44C342.833 122.01 342.738 131.062 340.079 136C338.718 138.563 335.364 139.545 333.211 141.665C332.578 142.266 332.99 143.121 333.211 144.039C336.724 153.819 336.788 153.787 336.598 155.053C335.667 160.308 334.367 165.49 332.705 170.562C331.914 170.213 323.02 165.498 305.613 158.724C305.074 155.148 302.194 136.063 301.276 132.55C301.34 131.316 301.182 131.031 299.346 130.208V130.366ZM321.501 117.453C320.488 120.903 315.709 122.39 312.291 121.441C308.872 120.491 308.651 118.751 307.037 114.636C306.28 113.064 305.758 111.39 305.486 109.667C306.53 108.528 317.956 106.185 319.38 105.964C321.377 109.382 322.129 113.386 321.501 117.295V117.453ZM197.655 307.479C196.452 308.651 198.066 312.48 198.319 315.803C198.319 316.088 198.319 317.323 198.129 317.418C196.388 317.987 194.774 315.36 193.793 313.778C192.812 312.195 191.831 310.043 190.28 310.613C187.115 312.1 179.772 321.849 176.892 322.861C175.436 320.076 183.761 312.132 184.045 311.689C184.167 311.486 184.231 311.251 184.23 311.016C184.229 310.779 184.163 310.544 184.039 310.344C183.915 310.141 183.738 309.978 183.527 309.866C183.316 309.758 183.079 309.711 182.843 309.727C182.273 309.727 181.893 310.233 181.006 311.024C178.311 313.654 175.226 315.853 171.86 317.544C174.912 314.042 178.178 310.734 181.639 307.638C181.811 307.461 181.931 307.242 181.988 307.005C181.988 307.005 181.324 305.327 180.026 305.992C178.19 307.005 169.264 312.164 166.448 313.493C166.068 313.24 166.29 312.86 166.448 312.48C170.91 307.005 180.722 300.358 186.735 296.149C187.441 295.421 188.029 294.59 188.476 293.68C192.641 297.555 197.084 301.121 201.769 304.346C200.326 305.293 198.951 306.34 197.655 307.479ZM271.304 336.249C270.608 335.806 270.101 335.395 270.006 334.825C268.266 321.912 277.95 248.737 277.792 245.857C277.792 245.688 277.758 245.521 277.692 245.365C277.629 245.21 277.531 245.069 277.41 244.951C277.289 244.833 277.146 244.74 276.988 244.678C276.832 244.616 276.664 244.587 276.495 244.591C274.88 244.591 277.729 244.591 237.407 283.204C234.749 285.704 214.429 305.137 211.042 306.435C206.39 306.087 188.887 292.129 186.039 287.73C191.546 276.589 258.327 184.931 281.432 170.91C283.204 169.834 286.243 168.156 289.566 166.384C290.716 167.468 291.953 168.452 293.269 169.327C300.612 176.29 310.835 184.962 318.589 191.482L312.544 203.478C312.452 203.636 312.404 203.817 312.404 204C312.404 204.183 312.452 204.363 312.544 204.522C361.633 274.943 360.905 274.152 361.222 274.152C364.368 290.425 366.325 306.905 367.077 323.463C367.077 327.925 367.077 327.546 367.267 327.229C367.457 326.913 367.267 327.451 367.267 327.451C359.607 335.806 283.806 343.592 271.304 336.249ZM446.265 231.393C431.928 233.387 415.723 230.412 412.59 230.285C410.849 221.848 407.378 213.863 402.398 206.832C402.322 206.73 402.211 206.66 402.085 206.637C401.96 206.613 401.831 206.638 401.723 206.706C401.615 206.774 401.536 206.88 401.502 207.003C401.47 207.127 401.483 207.258 401.544 207.371C403.379 211.105 409.519 227.215 411.039 231.14C410.564 232.659 425.344 293.775 421.167 302.004C417.432 309.442 395.688 318.81 387.839 321.5C386.288 303.879 383.751 286.361 380.243 269.025C381.319 259.91 379.927 205.725 379.515 185.69C379.502 185.458 379.426 185.233 379.291 185.043C379.157 184.852 378.972 184.704 378.756 184.614L364.545 178.632C364.482 171.111 364.004 163.599 363.121 156.129C398.6 162.269 439.935 182.557 443.385 182.589C448.386 182.589 485.543 154.104 493.234 152.964C496.652 152.426 511.338 165.244 513.047 168.789C498.045 189.741 471.68 217.277 459.463 226.804C455.528 229.435 450.984 231.015 446.265 231.393Z" fill="#232327"/>
<path d="M318.241 111.123C318.201 110.915 318.123 110.717 318.006 110.541C317.89 110.363 317.74 110.211 317.566 110.092C317.389 109.973 317.194 109.89 316.985 109.847C316.78 109.803 316.566 109.802 316.358 109.841C316.149 109.881 315.952 109.961 315.775 110.077C315.598 110.193 315.446 110.342 315.326 110.517C315.208 110.692 315.123 110.889 315.081 111.096C315.039 111.303 315.036 111.517 315.076 111.724C315.709 114.889 315.836 115.617 317.228 115.617C317.492 115.618 317.75 115.553 317.983 115.429C318.215 115.304 318.413 115.124 318.555 114.904C318.7 114.684 318.787 114.431 318.811 114.169C318.832 113.906 318.789 113.643 318.684 113.402C318.589 112.895 318.304 111.408 318.241 111.123ZM327.926 132.075C329.983 132.677 331.946 131.695 331.882 131.189C331.819 130.683 331.882 130.936 329.097 129.891C327.23 129.195 325.172 126.726 324.444 127.106C323.717 127.486 324.824 129.512 325.077 129.891C325.755 130.919 326.758 131.688 327.926 132.075ZM385.814 102.008C381.668 119.384 378.629 134.133 378.123 137.076C377.785 138.356 377.722 139.694 377.933 141.001C379.61 144.577 401.291 151.635 404.044 150.242C406.798 148.85 413.951 132.74 422.275 116.124C427.373 116.287 432.476 115.915 437.498 115.016C442.787 114.046 447.932 112.419 452.817 110.173C463.515 105.236 475.225 84.0939 476.808 73.4595C477.994 61.9136 475.55 50.2854 469.813 40.1954C443.259 -5.8554 365.368 18.9265 371.698 70.0729C373.505 81.776 378.376 92.7936 385.814 102.008ZM405.12 139.703C405.12 140.209 404.551 140.146 401.955 139.703C396.646 139.036 391.506 137.394 386.795 134.86C384.579 133.658 383.978 133.405 384.2 132.867C384.421 132.328 384.896 132.518 388.314 133.468C388.631 133.468 398.442 136.633 401.259 137.614C404.899 139.26 405.12 139.26 405.12 139.703ZM404.551 88.2084C407.929 88.3833 411.297 87.6865 414.33 86.1828C417.147 87.5478 420.196 88.3747 423.319 88.6198C418.002 98.5263 407.209 118.719 403.728 129.48L390.308 125.777C393.473 117.991 400.468 99.7606 404.487 88.2084H404.551ZM403.443 85.5814C401.079 85.2247 398.898 84.1025 397.237 82.3877C395.572 80.6722 394.518 78.459 394.233 76.0864C393.347 69.7564 397.398 62.6668 403.506 64.3443C407.336 65.3887 407.811 68.4271 407.146 72.2568C406.576 75.042 404.519 82.0366 403.38 85.4548L403.443 85.5814ZM412.052 77.9854C412.389 75.9144 413.167 73.9394 414.33 72.1935C414.884 71.2417 415.694 70.4642 416.667 69.9498C417.64 69.4348 418.738 69.2034 419.838 69.2817C422.18 69.978 423.192 74.409 421.262 77.1942C419.405 79.6566 417.097 81.7409 414.457 83.3343C413.547 82.8014 412.825 82.0033 412.384 81.0469C411.943 80.091 411.804 79.0224 411.988 77.9854H412.052ZM382.965 37.7584C397.145 20.6989 423.825 13.9258 443.1 20.9521C453.571 24.5465 462.377 31.8242 467.882 41.4298C473.339 51.031 475.673 62.092 474.56 73.0797C473.105 82.9228 461.9 103.369 452.057 107.895C443.058 112 433.239 113.992 423.351 113.718C422.275 113.718 421.135 113.718 420.724 114.478C418.856 118.276 415.438 125.619 412.083 132.518C409.765 131.4 407.365 130.468 404.899 129.733C408.57 119.225 420.154 98.5896 425.661 88.5882C430.432 88.9968 435.23 88.1687 439.587 86.1828C440.763 85.563 441.739 84.6204 442.401 83.4649C443.061 82.31 443.38 80.9905 443.317 79.6612C443.253 78.3324 442.81 77.0492 442.046 75.9616C441.278 74.8745 440.217 74.028 438.986 73.5228C434.08 71.1174 429.681 76.8777 427.117 81.7201C426.421 82.9861 425.63 84.4737 424.743 86.1511C422.183 85.9831 419.658 85.4612 417.242 84.6003C419.648 82.9085 421.784 80.8598 423.572 78.5235C424.575 77.01 425.081 75.2233 425.025 73.4094C424.968 71.595 424.35 69.8433 423.256 68.3955C422.396 67.3971 421.201 66.7462 419.896 66.5655C418.59 66.3849 417.264 66.687 416.166 67.4143C413.948 68.7764 412.173 70.7491 411.049 73.0958C409.928 75.4425 409.506 78.0637 409.836 80.644C410.179 82.1005 410.965 83.416 412.083 84.4104C410.008 85.2701 407.779 85.7011 405.532 85.6764C406.798 81.9417 408.855 75.2002 409.393 72.4467C409.731 70.8769 409.805 69.2621 409.615 67.6675C409.369 66.2991 408.734 65.0302 407.784 64.014C406.837 62.9972 405.614 62.2773 404.266 61.9389C396.575 59.755 390.909 68.2689 392.017 76.213C392.329 79.0598 393.552 81.7299 395.502 83.828C397.451 85.9261 400.025 87.34 402.841 87.8602C398.79 99.2542 392.46 117.643 389.295 125.492L382.332 123.688C386.795 101.28 387.333 101.818 386.7 101.533C379.507 92.3643 374.908 81.4347 373.375 69.883C372.629 64.155 373.099 58.3342 374.75 52.7998C376.401 47.2647 379.202 42.1397 382.965 37.7584ZM426.896 86.341C429.111 82.3215 433.542 73.5228 437.846 75.675C438.706 76.022 439.458 76.5974 440.014 77.3392C440.573 78.081 440.916 78.9608 441.011 79.8844C440.948 85.4548 432.276 86.436 426.769 86.341H426.896ZM548.052 100.299C551.865 98.0556 556.371 97.2896 560.712 98.1465C565.481 98.2317 570.035 100.138 573.443 103.475C576.853 106.812 578.85 111.326 579.034 116.092C576.168 114.428 572.815 113.802 569.542 114.32C561.598 115.016 551.217 119.32 552.609 126.98C553.749 133.31 562.104 132.455 568.434 130.746C574.764 129.037 579.794 125.935 581.094 119.827C588.782 125.429 590.589 135.24 590.906 144.83C590.906 144.964 590.958 145.093 591.055 145.188C591.147 145.283 591.28 145.337 591.412 145.337C591.545 145.337 591.677 145.283 591.769 145.188C591.867 145.093 591.919 144.964 591.919 144.83C592.137 134.101 590.21 123.593 581.44 117.485C581.532 114.737 581.06 111.999 580.064 109.437C579.069 106.876 577.555 104.544 575.633 102.582C573.707 100.62 571.401 99.0695 568.859 98.0239C566.317 96.9789 563.587 96.4604 560.838 96.5007C556.444 95.8591 551.966 96.7775 548.178 99.096C547.007 99.6657 547.545 100.52 548.052 100.299ZM576.916 122.992C573.34 127.676 563.212 130.113 558.528 129.322C556.787 129.037 555.363 128.309 554.983 126.505C553.844 120.175 564.763 116.725 571.283 116.503C573.936 116.3 576.583 116.979 578.816 118.434C578.574 120.089 577.924 121.657 576.916 122.992ZM533.556 63.2998C536.943 59.122 534.664 51.8426 525.2 51.811C521.529 51.811 519.757 55.5457 520.01 59.122C520.58 67.6359 530.169 67.3827 533.556 63.2998ZM522.225 58.9638C522.225 56.8749 523.206 54.153 525.39 54.1847C530.486 54.1847 532.828 56.5584 532.828 59.1853C532.701 65.1672 521.814 68.2689 522.225 58.9638ZM520.928 417.78C493.107 406.671 480.194 460.444 457.469 506.653C457.324 508.594 457.39 510.549 457.659 512.477C457.659 517.319 458.197 549.381 461.014 553.02C461.774 554.476 464.97 553.02 466.458 552.102C479.092 544.283 490.997 535.341 502.033 525.39C502.128 525.282 502.196 525.158 502.241 525.02C502.283 524.883 502.299 524.741 502.286 524.599C508.173 516.211 530.233 472.534 535.582 450.633C539.316 435.124 535.613 423.572 520.928 417.78ZM530.866 457.975C515.972 456.066 501.571 451.363 488.423 444.113C495.829 430.092 504.976 414.108 520.073 420.122C536.879 426.8 536.531 440.631 530.866 457.88V457.975ZM478.2 540.265C477.227 539.45 476.167 538.749 475.035 538.176C470.757 536.003 465.817 535.526 461.204 536.847C460.888 533.081 459.084 508.584 459.084 508.362C482.789 517.034 475.478 513.268 498.963 524.947C496.494 527.289 487.22 533.777 478.2 540.202V540.265ZM494.532 448.67C497.617 450.356 500.788 451.888 504.027 453.259C496.771 464.653 490.362 476.567 484.847 488.897C479.529 500.007 479.719 499.943 474.307 512.065C471.142 511.052 467.977 510.103 464.812 509.153C468.23 502.349 492.538 452.595 494.532 448.607V448.67ZM475.542 512.382C485.828 493.93 496.304 470.983 505.293 453.671C508.458 455 511.623 456.076 514.788 457.026C513.11 460.191 508.204 468.61 506.907 471.047C505.609 473.484 492.601 499.12 491.683 501.083C490.227 504.248 486.239 513.078 485.005 515.895C481.777 514.471 478.675 513.394 475.415 512.318L475.542 512.382ZM486.144 516.306C488.075 512.793 496.019 498.044 497 496.145C498.488 493.202 515.072 459.305 515.99 457.342C518.902 458.165 521.972 458.862 523.934 459.241C518.142 475.066 501.463 505.545 495.449 520.579C489.974 518.015 488.74 517.382 486.018 516.243L486.144 516.306ZM488.075 445.03L493.74 448.195C482.323 467.639 472.379 487.908 463.989 508.837L459.242 507.381C477.63 468.198 478.485 463.071 487.948 444.967L488.075 445.03ZM501.115 523.333L496.336 521.054C501.495 510.926 517.636 484.941 525.011 459.463C526.783 459.779 528.524 460.064 530.201 460.286C522.067 481.987 512.303 503.043 500.988 523.269L501.115 523.333ZM401.955 543.873C403.216 542.829 404.118 541.415 404.532 539.83C404.946 538.245 404.854 536.57 404.266 535.043C403.996 532.838 402.987 530.789 401.399 529.236C399.811 527.682 397.741 526.714 395.53 526.495C393.32 526.274 391.099 526.811 389.237 528.02C387.373 529.228 385.975 531.037 385.276 533.144C381.225 530.517 376.825 527.732 372.616 525.073C375.781 520.864 385.086 522.731 386.035 526.181C386.057 526.316 386.13 526.437 386.238 526.516C386.349 526.595 386.487 526.629 386.621 526.609C386.755 526.587 386.874 526.514 386.956 526.405C387.035 526.294 387.069 526.157 387.048 526.023C386.573 520.516 375.116 517.287 370.495 523.776C366.412 521.275 361.348 518.237 357.107 515.926C360.747 512.761 368.881 514.534 369.767 517.825C369.809 517.939 369.889 518.031 369.994 518.092C370.097 518.15 370.221 518.171 370.337 518.147C370.455 518.124 370.561 518.06 370.637 517.965C370.712 517.873 370.751 517.754 370.748 517.636C370.337 512.508 359.734 509.058 354.923 514.692C352.908 513.563 350.788 512.63 348.593 511.907C348.192 511.741 347.752 511.693 347.325 511.772C346.898 511.852 346.502 512.052 346.188 512.35C338.181 522.32 311.183 548.209 298.713 551.216C298.399 551.264 298.104 551.393 297.856 551.591C297.608 551.789 297.418 552.047 297.302 552.342C297.186 552.638 297.149 552.96 297.197 553.271C297.247 553.585 297.376 553.88 297.574 554.128C300.311 556.908 303.447 559.266 306.879 561.123C303.714 564.288 301.245 567.136 299.409 569.193C298.46 570.206 297.953 589.576 298.776 593.852C298.898 594.266 299.169 594.629 299.536 594.864C303.524 597.586 354.892 619.805 360.146 616.83C363.659 614.833 405.595 571.187 406.26 569.858C407.273 567.769 406.924 553.843 406.861 548.273C406.608 546.595 403.474 544.791 401.955 543.873ZM300.675 585.686V578.625C313.81 584.955 343.878 597.868 355.272 601.476C358.183 602.426 358.437 602.299 359.956 601.476C368.659 595.906 399.392 561.281 405.025 555.995V562.674C387.934 579.799 358.911 609.803 358.373 608.094C355.24 607.904 303.397 586.952 300.675 585.686ZM401.164 533.207C402.301 535.125 402.913 537.309 402.936 539.537C402.926 540.247 402.752 540.943 402.427 541.576C402.103 542.207 401.639 542.755 401.069 543.177C398.41 541.405 393.378 538.113 387.428 534.252C390.688 527.827 397.936 527.732 401.037 533.207H401.164ZM299.884 553.463C313.367 549.475 338.972 524.788 347.581 514.091C349.651 514.669 351.65 515.486 353.531 516.528C350.366 522.415 353.752 528.871 354.955 527.953C355.62 527.447 354.417 527.257 354.227 524.155C354.145 521.89 354.66 519.643 355.715 517.636C360.082 519.914 365.21 522.889 369.546 525.39C366.887 531.308 370.084 537.164 371.191 536.309C372.299 535.455 370.685 535.644 370.495 532.543C370.419 530.509 370.807 528.483 371.635 526.624C376.097 529.251 380.655 531.973 384.833 534.537C384.189 536.114 383.933 537.823 384.086 539.519C384.242 541.215 384.801 542.85 385.719 544.285C385.761 544.338 385.811 544.385 385.872 544.42C385.93 544.451 385.996 544.475 386.062 544.483C386.13 544.491 386.199 544.488 386.265 544.47C386.331 544.451 386.392 544.422 386.447 544.38C386.5 544.338 386.547 544.288 386.579 544.227C386.613 544.169 386.637 544.103 386.645 544.035C386.652 543.968 386.65 543.9 386.632 543.834C386.613 543.768 386.584 543.705 386.542 543.652C385.972 542.394 385.692 541.025 385.719 539.646C385.745 538.266 386.08 536.91 386.7 535.676C394.074 540.17 400.025 543.937 401.86 545.171C401.512 545.488 368.501 574.859 357.265 583.597C349.891 581.664 311.183 562.452 299.884 553.463ZM301.087 571.092C315.424 577.422 347.992 592.108 355.493 593.535C356.791 593.788 357.297 593.88 359.766 591.918C370.305 583.47 404.582 547.608 404.899 547.988C404.914 548.083 404.914 548.178 404.899 548.273V554.603C397.841 560.268 358.595 601.476 357.962 599.514C354.797 599.514 303.366 578.533 300.739 577.359C300.675 576.03 300.96 572.485 301.087 571.092ZM358.721 614.706C355.556 616.513 307.353 596.919 300.897 592.931C300.654 590.911 300.538 588.885 300.549 586.854C314.411 593.691 354.733 610.718 358.437 610.563C363.849 610.275 402.114 567.199 404.835 564.193C404.867 565.81 404.706 567.424 404.361 569.003C403.823 570.048 360.81 613.538 358.721 614.706ZM96.5 436.295C96.7216 439.682 96.8798 442.625 96.8798 445.379C96.8798 445.798 97.0467 446.202 97.3431 446.497C97.64 446.795 98.0422 446.961 98.4623 446.961C98.8818 446.961 99.2846 446.795 99.581 446.497C99.8779 446.202 100.045 445.798 100.045 445.379C100.045 442.435 99.8866 439.523 99.665 436.074C99.6357 435.654 99.4406 435.264 99.1229 434.987C98.8053 434.71 98.3915 434.573 97.9715 434.602C97.5519 434.631 97.1612 434.826 96.885 435.142C96.6088 435.462 96.4707 435.876 96.5 436.295ZM578.752 372.837C578.545 372.85 578.344 372.903 578.154 372.993C577.97 373.085 577.803 373.211 577.67 373.37C577.532 373.525 577.429 373.707 577.365 373.903C577.302 374.101 577.279 374.309 577.296 374.514C577.486 377.426 577.676 380.559 577.676 383.598C577.676 384.017 577.843 384.421 578.142 384.716C578.436 385.014 578.839 385.18 579.259 385.18C579.679 385.18 580.082 385.014 580.375 384.716C580.674 384.421 580.841 384.017 580.841 383.598C580.841 380.433 580.651 377.268 580.427 374.293C580.415 374.087 580.363 373.884 580.271 373.699C580.179 373.512 580.053 373.346 579.897 373.211C579.742 373.075 579.558 372.971 579.362 372.908C579.167 372.845 578.959 372.818 578.752 372.837ZM88.3027 428.414C88.7222 428.414 89.125 428.248 89.4213 427.95C89.7183 427.655 89.8852 427.251 89.8852 426.832C89.8852 426.412 89.7183 426.009 89.4213 425.714C89.125 425.416 88.7222 425.249 88.3027 425.249C84.473 425.249 81.2764 425.534 78.1114 425.471C77.6884 425.471 77.2827 425.637 76.9812 425.932C76.6791 426.228 76.5053 426.631 76.4972 427.053C76.4972 427.473 76.6641 427.876 76.9605 428.171C77.2574 428.469 77.6596 428.636 78.0797 428.636C81.3397 428.699 84.9161 428.572 88.3027 428.414ZM568.941 363.468C565.143 363.468 561.946 363.69 558.749 363.722C558.33 363.722 557.927 363.888 557.631 364.186C557.333 364.481 557.167 364.885 557.167 365.304C557.167 365.724 557.333 366.127 557.631 366.422C557.927 366.72 558.33 366.887 558.749 366.887C562.168 366.887 565.712 366.887 569.131 366.633C569.55 366.607 569.943 366.417 570.222 366.103C570.5 365.789 570.642 365.376 570.618 364.956C570.592 364.536 570.402 364.143 570.088 363.864C569.772 363.585 569.36 363.442 568.941 363.468ZM95.6455 408.855C95.8354 411.766 96.0253 414.9 96.0253 417.938C96.0333 418.355 96.2025 418.753 96.4977 419.049C96.7923 419.344 97.1906 419.512 97.6078 419.521C98.0273 419.521 98.4301 419.354 98.7265 419.056C99.0234 418.761 99.1903 418.358 99.1903 417.938C99.1903 414.773 99.0004 411.608 98.8105 408.633C98.7811 408.213 98.586 407.823 98.2684 407.547C97.9507 407.27 97.537 407.132 97.1169 407.162C96.6974 407.19 96.3067 407.385 96.0304 407.702C95.7542 408.021 95.6161 408.435 95.6455 408.855ZM579.984 356.157C579.984 352.992 579.794 349.827 579.575 346.852C579.546 346.433 579.351 346.043 579.034 345.766C578.718 345.489 578.303 345.351 577.883 345.381C577.463 345.41 577.072 345.605 576.796 345.921C576.519 346.24 576.381 346.654 576.41 347.074C576.6 349.986 576.79 353.119 576.79 356.157C576.79 356.577 576.957 356.98 577.256 357.275C577.55 357.573 577.952 357.74 578.372 357.74C578.793 357.74 579.201 357.573 579.5 357.278C579.805 356.983 579.978 356.579 579.984 356.157ZM119.003 428.003C119.211 427.995 119.415 427.945 119.604 427.858C119.793 427.771 119.963 427.647 120.104 427.494C120.245 427.341 120.355 427.164 120.426 426.966C120.498 426.771 120.531 426.565 120.522 426.357C120.49 425.943 120.303 425.555 119.998 425.273C119.693 424.994 119.292 424.838 118.877 424.838C115.047 424.996 111.85 425.123 108.654 425.059C108.234 425.059 107.831 425.226 107.534 425.524C107.238 425.819 107.071 426.222 107.071 426.642C107.071 427.061 107.238 427.465 107.534 427.76C107.831 428.058 108.234 428.224 108.654 428.224C112.04 428.288 115.585 428.161 119.003 428.003ZM599.641 363.057C596.476 363.215 592.96 363.31 589.45 363.31C589.243 363.302 589.036 363.337 588.834 363.41C588.639 363.485 588.466 363.598 588.311 363.74C588.161 363.885 588.04 364.059 587.959 364.252C587.879 364.444 587.833 364.653 587.833 364.861C587.833 365.283 588 365.689 588.299 365.992C588.592 366.293 588.995 366.467 589.415 366.475C593.023 366.475 595.935 366.475 599.768 366.222C599.975 366.214 600.176 366.164 600.366 366.077C600.556 365.99 600.729 365.866 600.867 365.713C601.011 365.56 601.12 365.384 601.189 365.186C601.264 364.991 601.293 364.785 601.287 364.576C601.247 364.165 601.057 363.783 600.752 363.503C600.453 363.22 600.056 363.062 599.641 363.057ZM46.2712 334.224C46.6827 334.54 135.936 321.311 139.766 318.969C139.978 318.813 140.147 318.607 140.258 318.37C140.368 318.132 140.417 317.869 140.399 317.608C140.399 313.525 135.05 275.197 132.486 265.638C132.17 264.467 131.853 263.296 131.125 262.885C126.283 259.973 40.9541 276.051 35.8584 279.343C35.7204 279.424 35.601 279.536 35.5084 279.664C35.4156 279.796 35.3518 279.944 35.3203 280.102C34.2442 283.932 43.5177 332.325 46.2712 334.224ZM37.251 280.862C43.3278 278.108 120.776 263.929 129.638 265.037C131.79 270.576 137.55 311.151 137.93 317.101C133.531 318.399 47.474 333.179 47.1575 333.243C46.841 333.306 46.8093 333.686 46.1447 331.692C43.3595 323.336 37.0928 288.015 37.251 280.862Z" fill="#232327"/>
<path d="M146.728 321.785C146.9 321.466 146.977 321.102 146.95 320.741C146.95 315.709 139.733 259.846 137.17 255.384C136.969 255.054 136.685 254.785 136.345 254.601C136.006 254.417 135.625 254.327 135.239 254.339C124.636 253.042 35.1934 270.512 29.3065 274.595C28.4836 275.165 28.6102 276.589 28.7051 278.108C29.2115 286.432 38.2001 341.187 41.3651 340.87C41.7133 340.87 41.5867 340.617 40.7638 342.295C35.8264 352.454 26.458 384.99 26.6479 391.542C26.6479 394.295 27.2809 397.872 30.0028 397.682C49.5308 395.277 145.272 380.085 172.808 374.419C173.884 374.198 174.58 373.217 174.548 371.602C174.223 368.912 173.408 366.306 172.143 363.911C168.282 356.664 152.267 327.957 146.728 321.785ZM41.555 339.889C39.0863 336.724 30.0028 282.191 30.6991 276.146C37.6621 272.538 125.902 255.479 135.144 256.871C137.676 263.834 144.228 314.126 144.639 320.171C133.435 324.032 55.8608 336.566 41.555 339.889ZM42.9476 340.839C45.6062 340.174 136.157 325.014 144.449 322.83C148.975 327.039 169.421 363.405 170.75 366.507C152.583 369.672 44.815 387.681 28.9583 390.086C29.1799 380.496 39.023 346.979 42.9476 340.839Z" fill="#232327"/>
<path d="M54.8498 373.66C57.6034 373.248 116.029 366.222 137.14 360.493C137.27 360.459 137.381 360.375 137.45 360.261C137.518 360.145 137.537 360.005 137.504 359.876C137.47 359.747 137.387 359.633 137.27 359.567C137.155 359.499 137.017 359.478 136.887 359.512C132.74 360.367 82.1638 367.108 54.7865 372.678C54.7108 372.665 54.633 372.668 54.5592 372.689C54.4853 372.71 54.417 372.747 54.3598 372.8C54.3023 372.85 54.2574 372.913 54.2282 372.985C54.1991 373.056 54.1865 373.132 54.1915 373.208C54.1965 373.285 54.2187 373.362 54.2569 373.428C54.2949 373.493 54.3477 373.551 54.411 373.593C54.4745 373.638 54.5471 373.668 54.623 373.678C54.699 373.689 54.7765 373.683 54.8498 373.66ZM97.5456 153.439C96.3631 156.109 95.3693 158.859 94.5705 161.668C94.5234 162.119 94.6477 162.571 94.9187 162.934C98.1154 167.745 130.873 204.68 139.419 209.871C140.59 210.599 141.982 211.105 142.837 210.061C149.044 202.336 157.146 196.351 166.353 192.685C173.846 190.034 181.703 188.55 189.647 188.286C195.977 187.716 197.085 187.083 199.522 182.937C202.397 177.48 206.211 172.573 210.789 168.441C216.627 163.337 223.107 159.017 230.064 155.591C230.377 155.414 230.622 155.137 230.76 154.804C230.897 154.471 230.92 154.102 230.824 153.755C229.754 151.033 228.339 148.459 226.614 146.096C227.754 145.716 229.02 145.368 229.02 144.229C229.02 141.064 201.421 101.121 193.762 93.5888C192.97 92.7975 191.831 91.7531 190.787 91.8164C174.962 92.7026 159.548 107.641 150.623 120.681C140.4 120.301 133.785 119.384 122.138 124.289C113.915 127.779 106.502 132.93 100.362 139.418C99.413 140.399 92.9564 147.236 92.8615 147.774C92.7665 148.312 92.9564 148.312 97.5456 153.439ZM224.146 152.553C210.948 154.8 202.529 165.782 196.325 177.714C193.572 183.032 193.825 183.285 190.913 183.222C185.822 182.933 180.714 183.124 175.658 183.791C171.949 184.345 168.303 185.258 164.77 186.513C156.731 189.362 147.521 198.477 142.615 205.25C142.511 205.389 142.378 205.505 142.226 205.59C142.074 205.674 141.906 205.725 141.733 205.74C141.559 205.755 141.385 205.733 141.22 205.676C141.056 205.619 140.906 205.528 140.78 205.408C130.493 194.805 112.295 176.195 103.148 165.498C102.705 165.023 103.464 164.327 103.907 164.833C109.826 171.163 125.113 186.323 141.507 202.813C147.046 195.755 155.592 187.209 164.042 184.234C168.651 182.591 173.446 181.527 178.316 181.069C182.878 180.723 187.459 180.723 192.021 181.069C193.888 178.917 203.13 154.483 224.082 151.761C224.143 151.806 224.194 151.864 224.23 151.932C224.266 151.999 224.285 152.073 224.288 152.149C224.292 152.225 224.277 152.301 224.248 152.371C224.217 152.441 224.172 152.503 224.114 152.553H224.146ZM190.755 94.38C197.085 98.811 222.848 136.949 226.203 143.627C220.382 145.472 214.762 147.9 209.428 150.875C204.378 153.407 199.956 157.033 196.485 161.49C193.014 165.947 190.581 171.122 189.362 176.638C178 158.155 162.143 137.804 151.604 122.833C152.237 122.422 170.024 95.6144 190.755 94.38ZM122.834 126.03C134.386 121.377 140.78 122.454 150.338 122.865C159.833 139.07 176.892 161.921 188.128 176.892C177.758 174.438 166.845 175.939 157.522 181.101C151.92 184.266 145.084 191.862 140.875 196.578C134.798 191.704 99.7295 154.357 94.0958 148.027C102.768 138.215 110.775 130.841 122.834 125.903V126.03ZM64.9145 206.516C64.1325 205.967 63.2077 205.657 62.2524 205.623C61.2972 205.589 60.3529 205.833 59.534 206.326C58.9378 206.592 58.3992 206.973 57.9504 207.447C57.5007 207.921 57.1494 208.479 56.9158 209.089C56.6821 209.698 56.5708 210.349 56.5885 211.001C56.6059 211.654 56.7517 212.297 57.0178 212.894C57.2837 213.49 57.6649 214.028 58.1385 214.477C58.6127 214.926 59.1703 215.278 59.7803 215.511C60.3903 215.746 61.04 215.857 61.6931 215.839C62.3457 215.822 62.989 215.675 63.5852 215.41C64.5382 215.201 65.4054 214.708 66.0712 213.996C66.7375 213.283 67.1714 212.386 67.3153 211.421C67.4597 210.457 67.3072 209.471 66.8785 208.595C66.4498 207.719 65.765 206.994 64.9145 206.516ZM62.8256 212.846C60.6101 213.542 59.2808 212.846 58.7428 211.77C57.73 209.523 58.9959 206.073 62.2875 207.086C64.598 207.94 66.4653 211.833 62.8256 213.004V212.846ZM225.855 61.6856C226.773 63.5529 231.045 62.8566 232.913 62.2553C233.894 61.9388 234.527 61.5906 234.622 60.6411C234.907 58.2674 235.223 37.6949 234.147 35.701C234.036 35.4918 233.866 35.3204 233.657 35.2078C233.448 35.0952 233.212 35.0464 232.976 35.068C229.599 35.0585 226.239 35.5494 223.006 36.5239C221.709 37.3151 224.715 59.5967 225.855 61.6856ZM223.671 37.2835C226.595 36.8652 229.551 36.7275 232.501 36.872C232.691 39.2141 232.185 59.5017 232.153 59.8182C230.816 60.2976 229.388 60.4708 227.975 60.3246C227.754 59.5967 227.374 57.6344 226.899 55.1657C225.504 49.267 224.427 43.2975 223.671 37.2835ZM61.8445 179.803C62.1483 179.959 62.4844 180.04 62.8256 180.04C63.1668 180.04 63.5029 179.959 63.8068 179.803C65.0296 179.049 65.9992 177.947 66.5919 176.638C66.6725 176.429 66.6973 176.202 66.6639 175.981C66.6305 175.759 66.5407 175.549 66.402 175.372C64.8828 173.568 48.2982 154.357 46.2726 155.559C43.7855 157.17 41.426 158.968 39.2147 160.94C39.1256 161.02 39.0541 161.117 39.0051 161.226C38.956 161.335 38.9304 161.453 38.9299 161.573C38.8666 163.219 57.2869 177.968 61.8445 179.803ZM46.6524 156.382C48.9629 158.06 56.7488 167.681 63.965 176.195C63.6548 176.684 63.2704 177.122 62.8256 177.493C55.2386 172.637 47.9947 167.265 41.1454 161.415C42.8624 159.612 44.7026 157.93 46.6524 156.382ZM96.3746 86.5625C97.0709 74.2823 104.224 68.5853 111.693 67.1294C109.573 74.9153 109.921 85.0433 117.612 86.3409C121.283 86.9423 123.087 85.0433 125.746 82.8278C137.108 73.3328 127.93 63.8378 115.111 64.5024C119.891 51.3994 130.936 40.7333 145.59 40.3852C145.724 40.3852 145.853 40.3319 145.948 40.237C146.043 40.1418 146.097 40.0131 146.097 39.8788C146.097 39.7445 146.043 39.6156 145.948 39.5206C145.853 39.4257 145.724 39.3724 145.59 39.3724C129.765 39.0559 117.327 50.4499 112.421 64.6923C103.971 66.1482 95.5834 72.4782 95.3618 86.3726C95.3491 86.4393 95.3497 86.5072 95.3641 86.5734C95.3779 86.6396 95.405 86.7023 95.4429 86.7587C95.4815 86.8145 95.5298 86.8623 95.5868 86.8991C95.6432 86.936 95.7071 86.9619 95.7733 86.9739C95.84 86.9866 95.9079 86.9854 95.9741 86.9716C96.0403 86.9578 96.103 86.9308 96.1594 86.8928C96.2152 86.8542 96.263 86.8059 96.2998 86.7489C96.3366 86.6925 96.3619 86.6292 96.3746 86.5625ZM114.383 66.7496C119.099 66.4331 126.126 67.889 128.056 72.1617C129.164 74.5988 128.056 77.6055 124.132 80.8971C123.066 81.9646 121.851 82.8709 120.524 83.5874C115.776 85.613 110.522 79.7577 114.383 66.7496ZM123.435 514.376C120.377 513.556 117.187 513.358 114.051 513.79C110.915 514.222 107.897 515.278 105.175 516.894C102.453 518.508 100.082 520.653 98.2011 523.201C96.3199 525.746 94.967 528.642 94.2224 531.72C92.8166 538.113 94.0072 544.802 97.533 550.314C101.059 555.829 106.63 559.717 113.023 561.123C119.415 562.528 126.104 561.339 131.617 557.813C137.132 554.286 141.02 548.716 142.425 542.322C143.026 539.239 143.011 536.069 142.379 532.991C141.749 529.913 140.515 526.993 138.75 524.395C136.984 521.798 134.722 519.574 132.094 517.855C129.466 516.135 126.523 514.953 123.435 514.376ZM133.215 540.17C131.945 545.234 128.905 549.678 124.644 552.696C120.384 555.716 115.183 557.111 109.984 556.628C105.211 554.764 101.249 551.274 98.7944 546.777C96.3401 542.278 95.55 537.058 96.5645 532.036C97.7488 526.849 100.761 522.259 105.05 519.11C109.338 515.961 114.618 514.46 119.922 514.882C124.742 516.874 128.705 520.5 131.114 525.126C133.522 529.752 134.222 535.08 133.089 540.17H133.215Z" fill="#232327"/>
<path d="M165.593 523.396C162.838 522.446 159.884 522.217 157.016 522.731C155.826 520.004 154.363 517.406 152.648 514.977C154.705 513.11 160.339 507.919 158.978 505.482C154.134 499.687 148.384 494.719 141.95 490.765C139.264 489.259 136.306 488.301 133.247 487.948C131.221 488.233 126.41 496.114 125.333 497.886C124.637 497.886 122.169 497.095 121.979 497C121.979 494.721 121.315 486.492 119.257 485.542C116.957 484.696 114.568 484.11 112.136 483.802C109.889 483.454 89.6645 487.157 88.177 489.878C87.1958 491.714 89.4746 498.646 90.1393 500.576C88.4325 501.515 86.793 502.573 85.2335 503.741C82.0685 505.988 82.9231 505.893 82.3534 505.64C81.6645 505.31 80.9268 505.097 80.1695 505.007C77.641 503.525 74.6768 502.966 71.7823 503.425C68.8705 504.374 62.0024 520.009 60.8947 524.029C60.5321 525.042 60.4343 526.131 60.6098 527.194C61.3694 529.283 66.4334 530.96 68.554 531.625C67.9681 535.697 67.9681 539.833 68.554 543.905C65.7688 544.665 59.9762 546.374 60.2927 549.222C60.6092 552.071 68.0153 570.871 71.0854 572.358C72.7674 573.3 74.6273 573.878 76.5459 574.057C78.4644 574.236 80.3991 574.015 82.2268 573.403C83.2557 572.888 84.2501 572.308 85.2019 571.662C86.4679 572.612 87.7972 573.466 89.1581 574.289C88.177 576.726 85.9931 582.17 86.6894 584.639C87.0376 585.939 88.082 586.348 89.5379 586.889C93.5575 588.345 115.206 593.535 118.498 592.965C119.732 592.776 120.397 591.475 120.776 590.244C121.48 587.43 121.893 584.558 122.01 581.664C123.636 581.502 125.252 581.261 126.853 580.938C127.831 582.653 129.081 584.207 130.556 585.525C132.17 586.664 133.531 586.095 135.367 584.926C136.253 586.066 137.583 587.648 139.007 587.804C142.583 588.218 157.364 574.289 158.883 571.441C160.149 569.067 155.528 564.826 153.471 562.958C155.696 559.609 157.443 555.967 158.662 552.134C160.944 552.477 163.255 552.606 165.561 552.514C166.606 552.514 167.808 552.134 168.251 551.153C170.182 546.754 169.612 530.074 168.251 525.833C168.062 524.599 166.637 523.776 165.593 523.396ZM166.352 526.308C167.429 530.422 167.776 545.962 166.194 549.982C163.457 550.251 160.696 550.125 157.996 549.602C157.709 549.552 157.412 549.612 157.166 549.771C156.92 549.929 156.742 550.175 156.668 550.457C155.407 554.735 153.45 558.778 150.875 562.42C150.692 562.663 150.609 562.964 150.645 563.267C150.68 563.568 150.831 563.842 151.066 564.034C153.286 565.794 155.173 567.938 156.636 570.364C155.053 572.96 142.678 584.293 139.26 585.243C138.754 585.243 137.361 583.344 137.013 582.837C135.844 581.077 134.787 579.252 133.848 577.359C133.711 577.083 133.476 576.87 133.189 576.761C132.902 576.646 132.584 576.646 132.296 576.761C123.118 580.208 119.637 578.182 119.637 580.461C119.641 583.873 119.085 587.263 117.991 590.497C110.553 589.685 103.229 588.051 96.1528 585.623C96.4946 582.239 97.4372 578.947 98.938 575.903C99.8875 573.783 96.0895 574.384 88.9999 567.168C88.7714 566.957 88.4722 566.838 88.1614 566.838C87.8501 566.838 87.5509 566.957 87.3224 567.168C84.1574 569.763 80.0429 572.295 79.22 571.884C77.6059 571.092 70.1681 554.223 69.725 550.805C71.9762 549.235 74.5318 548.156 77.2261 547.64C77.5132 547.558 77.7612 547.376 77.9247 547.125C78.0869 546.875 78.1543 546.574 78.1123 546.279C77.3366 541.798 77.3366 537.214 78.1123 532.733C78.1606 532.456 78.1025 532.173 77.95 531.939C77.7969 531.704 77.561 531.535 77.2894 531.467C74.9029 530.842 72.6063 529.916 70.453 528.713C69.7567 528.207 69.82 528.238 69.8833 527.7C71.9319 520.313 75.2172 513.323 79.5998 507.033C81.3089 506.558 85.9298 509.945 87.5123 511.147C87.6775 511.308 87.899 511.398 88.1292 511.398C88.36 511.398 88.5815 511.308 88.7467 511.147C90.2008 509.638 91.7666 508.244 93.4309 506.969C98.2417 503.33 99.5393 503.805 99.1279 502.539C97.6725 499.363 96.8554 495.932 96.7225 492.442C97.2127 492.034 97.7698 491.714 98.3683 491.493C101.323 490.324 104.359 489.372 107.452 488.644C111.201 487.6 115.054 486.972 118.941 486.777C119.605 487.062 120.207 489.942 120.365 490.828C121.536 497.158 120.745 498.456 121.663 498.551C130.683 499.437 132.519 501.937 133.152 500.829C134.907 497.759 136.952 494.866 139.26 492.189C139.925 491.524 139.893 491.208 141.887 492.347C147.844 496.24 153.179 501.009 157.712 506.495C158.187 507.318 154.072 511.685 151.066 514.249C150.021 515.167 151.509 515.578 154.231 520.769C156.952 525.96 156.319 527.415 157.775 527.099C160.582 526.426 163.47 526.16 166.352 526.308ZM605.62 261.84C598.985 259.13 592.033 257.29 584.927 256.365C579.736 255.542 573.625 254.719 568.466 254.054C573.435 247.028 588.149 229.241 590.618 224.905C591.314 223.734 589.991 222.088 589.007 221.107C583.499 215.22 572.865 213.004 564.699 211.738C560.015 210.979 540.455 208.573 537.132 210.156C533.144 212.055 503.646 256.365 502.76 263.106C502.76 264.246 503.14 264.689 504.248 265.1C508.9 266.809 529.884 269.468 534.569 270.576C528.239 281.653 500.102 319.095 497.348 324.381C496.684 325.71 497.095 326.501 497.886 326.754C500.735 327.886 503.665 328.796 506.653 329.476C507.793 329.824 510.293 328.274 513.933 326.058C530.264 316.247 600.337 269.974 605.718 263.992C605.867 263.853 605.982 263.682 606.063 263.492C606.138 263.302 606.172 263.099 606.161 262.894C606.155 262.691 606.098 262.491 606.005 262.309C605.913 262.127 605.781 261.967 605.62 261.84ZM537.607 299.82C510.704 317.576 501.621 322.766 501.304 322.988C505.64 316.373 532.575 279.469 537.195 270.639C537.274 270.467 537.317 270.283 537.317 270.093C537.317 269.906 537.272 269.719 537.19 269.55C537.109 269.378 536.99 269.231 536.842 269.112C536.697 268.993 536.526 268.909 536.341 268.867C533.176 267.727 510.135 265.258 504.691 263.328C505.387 257.441 534.125 212.941 537.607 211.169C541.088 209.396 574.859 213.416 581.192 217.942C577.866 224.43 559.509 247.155 556.534 252.44C555.932 253.516 555.742 254.561 556.913 254.846C558.084 255.13 587.833 258.612 594.324 260.732C586.411 267.347 546.469 293.87 537.607 299.694V299.82ZM334.572 106.312C334.572 106.597 334.762 106.945 335.237 108.781C335.361 109.179 335.635 109.513 336.002 109.714C336.366 109.915 336.796 109.966 337.199 109.857C337.603 109.74 337.943 109.467 338.143 109.099C338.347 108.731 338.394 108.297 338.275 107.895C337.959 106.66 337.674 105.616 337.484 105.109C337.299 104.762 336.993 104.495 336.621 104.363C336.253 104.229 335.846 104.238 335.482 104.388C335.118 104.539 334.823 104.819 334.657 105.174C334.488 105.53 334.456 105.936 334.572 106.312Z" fill="#232327"/>
</svg>
