<svg width="157" height="94" viewBox="0 0 157 94" fill="none" xmlns="http://www.w3.org/2000/svg">
<path fill-rule="evenodd" clip-rule="evenodd" d="M113.199 89.4262C127.217 89.7664 141.541 89.086 154.944 93.9104C155.743 94.195 156.622 93.7805 156.911 92.9765C157.193 92.1724 156.782 91.288 155.983 90.9973C142.267 86.0615 127.616 86.68 113.273 86.3337C112.425 86.3089 111.718 86.9893 111.7 87.8428C111.675 88.6964 112.351 89.4015 113.199 89.4262Z" fill="#232327"/>
<path fill-rule="evenodd" clip-rule="evenodd" d="M111.94 68.9426C116.309 64.8963 121.078 61.865 126.842 60.3627C127.665 60.1487 128.157 59.3044 127.948 58.478C127.733 57.6517 126.891 57.1551 126.074 57.3691C119.806 59.0019 114.613 62.2689 109.862 66.6659C109.236 67.2436 109.193 68.2227 109.77 68.8511C110.342 69.4789 111.319 69.5203 111.94 68.9426Z" fill="#232327"/>
<path fill-rule="evenodd" clip-rule="evenodd" d="M99.7846 24.7668C101.788 17.8549 105.733 12.4479 111.78 8.54322C112.493 8.08243 112.702 7.12499 112.241 6.40689C111.786 5.6888 110.834 5.47973 110.121 5.94052C103.429 10.2639 99.0533 16.2474 96.8348 23.9003C96.5951 24.7192 97.0684 25.5789 97.8795 25.8177C98.6969 26.057 99.5511 25.5857 99.7846 24.7668Z" fill="#232327"/>
<path fill-rule="evenodd" clip-rule="evenodd" d="M30.7418 15.3865C29.5496 16.7985 28.4803 18.3201 27.5708 19.94C27.1652 20.6611 26.4524 22.1938 26.3417 23.5081C26.2188 24.9085 26.692 26.0898 27.9088 26.7121C29.525 27.5372 30.8155 27.4512 31.8111 26.9521C32.7697 26.4727 33.5194 25.5307 33.9926 24.2677C34.896 21.8536 34.7608 18.1642 34.2876 16.0588C35.5597 14.7377 36.9547 13.5396 38.448 12.4745C49.571 4.54208 65.8868 7.46704 78.4416 19.3276C82.8355 23.4803 84.9495 32.2013 86.0495 41.6108C87.764 56.2615 86.7869 72.6249 86.6517 77.4189C86.621 78.6028 86.7316 79.3054 86.7931 79.4458C87.0819 80.1361 87.592 80.3154 87.9484 80.3835C88.4646 80.4762 88.8763 80.3773 89.2081 80.2041C89.6567 79.9666 90.0255 79.5485 90.1976 78.9034C90.2898 78.5471 90.3143 78.0511 90.302 77.5222C90.2897 77.1554 90.216 76.7546 90.2897 76.4918C90.769 74.8082 91.3467 73.1642 91.9121 71.5084C93.7987 65.9424 96.2384 60.7265 98.9485 55.5168C107.558 38.9629 115.885 21.472 130.001 8.85992C130.634 8.29398 130.695 7.3155 130.13 6.6772C129.571 6.03889 128.6 5.98074 127.96 6.5473C113.562 19.4086 105.008 37.2008 96.2261 54.0824C93.9216 58.5141 91.8076 62.9519 90.05 67.5939C90.2282 59.3825 90.1606 48.0161 88.6673 37.9591C87.34 29.0148 84.8142 21.1102 80.5433 17.0731C66.7901 4.08005 48.8519 1.26151 36.672 9.9516C35.3692 10.8818 34.1279 11.9049 32.9725 13.0145C26.5999 1.43285 12.9573 -3.20911 0.900186 2.33028C0.125878 2.68469 -0.212108 3.60257 0.138174 4.3788C0.494602 5.15504 1.40407 5.49771 2.17838 5.1433C13.0433 0.151904 25.3647 4.60641 30.7418 15.3865ZM31.6328 19.2639C31.1351 19.9715 30.6742 20.7051 30.244 21.4634C30.0166 21.8703 29.6233 22.6528 29.4574 23.4185C29.4205 23.5979 29.4144 23.8786 29.4144 24.0085C29.8384 24.2188 30.1702 24.3203 30.4406 24.1836C30.7786 24.0153 30.9507 23.6195 31.1167 23.1773C31.5345 22.0676 31.6697 20.5968 31.6328 19.2639Z" fill="#232327"/>
</svg>
