<svg width="69" height="69" viewBox="0 0 69 69" fill="none" xmlns="http://www.w3.org/2000/svg">
<path fill-rule="evenodd" clip-rule="evenodd" d="M65.3282 21.714C52.3778 45.795 26.5081 55.5852 2.48074 42.0282C1.68086 41.5768 0.666532 41.859 0.215102 42.649C-0.236327 43.4531 0.0458467 44.4688 0.845723 44.9203C26.5998 59.4648 54.3754 49.0961 68.2568 23.294C68.6913 22.4899 68.388 21.4741 67.5797 21.0367C66.7714 20.6135 65.7627 20.9099 65.3282 21.714Z" fill="#232327"/>
<path d="M22.7006 31.7006C25.3758 31.7006 27.5444 29.532 27.5444 26.8569C27.5444 24.1818 25.3758 22.0132 22.7006 22.0132C20.0255 22.0132 17.8569 24.1818 17.8569 26.8569C17.8569 29.532 20.0255 31.7006 22.7006 31.7006Z" fill="#232327"/>
<path d="M42.7529 26.5479C45.3758 26.5479 47.5021 24.4217 47.5021 21.7988C47.5021 19.176 45.3758 17.0498 42.7529 17.0498C40.1301 17.0498 38.0039 19.176 38.0039 21.7988C38.0039 24.4217 40.1301 26.5479 42.7529 26.5479Z" fill="#232327"/>
</svg>
